<?xml version="1.0" encoding="utf-8"?>
<!-- Generator: Adobe Illustrator 17.1.0, SVG Export Plug-In . SVG Version: 6.00 Build 0)  -->
<!DOCTYPE svg PUBLIC "-//W3C//DTD SVG 1.1//EN" "http://www.w3.org/Graphics/SVG/1.1/DTD/svg11.dtd">
<svg version="1.1" id="silos" xmlns="http://www.w3.org/2000/svg" xmlns:xlink="http://www.w3.org/1999/xlink" x="0px" y="0px"
	 viewBox="0 0 990.9 318.8" enable-background="new 0 0 990.9 318.8" xml:space="preserve">
<polygon display="none" fill="#FFFFFF" stroke="#000000" stroke-miterlimit="10" points="45,122 48.5,235.5 77.5,271.5 104,235 
	100.5,122 109,109 113,97.5 60,97.5 "/>
<g id="Layer_3">
	<polygon fill="#FFFFFF" stroke="#000000" stroke-miterlimit="10" points="166,109 166,177.5 150.5,177.5 146.5,109 	"/>
</g>
<g id="Layer_4">
	<polygon fill="#FFFFFF" stroke="#000000" stroke-miterlimit="10" points="170.5,97.5 146.5,97.5 146.5,109 166,109 	"/>
	<polygon fill="#FFFFFF" stroke="#000000" stroke-miterlimit="10" points="136.8,119.3 137.7,139.2 110,138.5 109,119.7 109,109.8 
		136.7,109 136.8,97.5 	"/>
	<polygon fill="#FFFFFF" stroke="#000000" stroke-miterlimit="10" points="114.3,97.5 114.3,98 136.8,97.5 	"/>
	<path fill="none" d="M109,109l5.3-11.3L109,109z"/>
	<polyline fill="none" points="110,138.5 110.5,159.4 137.7,159.4 137.7,139.2 109.6,138.5 	"/>
	<rect x="110.6" y="139.2" fill="#FFFFFF" stroke="#000000" stroke-miterlimit="10" width="27.1" height="20.2"/>
	<rect x="111.3" y="160.1" fill="#FFFFFF" stroke="#000000" stroke-miterlimit="10" width="26.9" height="19.1"/>
	<rect x="167" y="109" fill="#FFFFFF" stroke="#000000" stroke-miterlimit="10" width="26" height="9.3"/>
	<rect x="167" y="118.3" fill="#FFFFFF" stroke="#000000" stroke-miterlimit="10" width="26" height="20.2"/>
	<rect x="167.9" y="140.7" fill="#FFFFFF" stroke="#000000" stroke-miterlimit="10" width="26.1" height="18.6"/>
	<rect x="167.9" y="161.1" fill="#FFFFFF" stroke="#000000" stroke-miterlimit="10" width="26.1" height="16.9"/>
	<rect x="204.3" y="139.2" fill="#FFFFFF" stroke="#000000" stroke-miterlimit="10" width="16.8" height="19.5"/>
	<rect x="204.3" y="160.1" fill="#FFFFFF" stroke="#000000" stroke-miterlimit="10" width="16.8" height="5.6"/>
	<rect x="253" y="109" fill="#FFFFFF" stroke="#000000" stroke-miterlimit="10" width="16" height="9.3"/>
	<rect x="253" y="119.2" fill="#FFFFFF" stroke="#000000" stroke-miterlimit="10" width="16" height="19.3"/>
	<rect x="281.2" y="109" fill="#FFFFFF" stroke="#000000" stroke-miterlimit="10" width="18.2" height="9.3"/>
	<rect x="253" y="140.2" fill="#FFFFFF" stroke="#000000" stroke-miterlimit="10" width="16" height="18.5"/>
	<rect x="257.7" y="160.1" fill="#FFFFFF" stroke="#000000" stroke-miterlimit="10" width="11.3" height="18.6"/>
	<rect x="293.7" y="168.5" fill="#FFFFFF" stroke="#000000" stroke-miterlimit="10" width="12.7" height="9.5"/>
	<rect x="294.5" y="179.5" fill="#FFFFFF" stroke="#000000" stroke-miterlimit="10" width="11.8" height="12.8"/>
	<rect x="311.8" y="168.5" fill="#FFFFFF" stroke="#000000" stroke-miterlimit="10" width="19.2" height="9.5"/>
	<rect x="311.8" y="180.2" fill="#FFFFFF" stroke="#000000" stroke-miterlimit="10" width="19.2" height="17.5"/>
	<rect x="311.8" y="199.7" fill="#FFFFFF" stroke="#000000" stroke-miterlimit="10" width="19.2" height="6.3"/>
	<rect x="340.8" y="168.5" fill="#FFFFFF" stroke="#000000" stroke-miterlimit="10" width="32.1" height="9.5"/>
	<rect x="340.8" y="179.5" fill="#FFFFFF" stroke="#000000" stroke-miterlimit="10" width="32.1" height="18.8"/>
	<rect x="341.5" y="199.7" fill="#FFFFFF" stroke="#000000" stroke-miterlimit="10" width="31.4" height="4.5"/>
	<rect x="366.4" y="205" fill="#FFFFFF" stroke="#000000" stroke-miterlimit="10" width="6.5" height="13"/>
	<rect x="379.1" y="198.3" fill="#FFFFFF" stroke="#000000" stroke-miterlimit="10" width="15.1" height="19"/>
	<rect x="379.1" y="178" fill="#FFFFFF" stroke="#000000" stroke-miterlimit="10" width="15.1" height="19.7"/>
	<rect x="379.1" y="167.9" fill="#FFFFFF" stroke="#000000" stroke-miterlimit="10" width="15.1" height="9.5"/>
	<rect x="48.8" y="214.5" fill="#FFFFFF" stroke="#000000" stroke-miterlimit="10" width="54.3" height="18.4"/>
	<rect x="47.8" y="194.3" fill="#FFFFFF" stroke="#000000" stroke-miterlimit="10" width="55.3" height="17.8"/>
	<rect x="46.9" y="173.3" fill="#FFFFFF" stroke="#000000" stroke-miterlimit="10" width="54.5" height="18.4"/>
	<rect x="46.1" y="152.8" fill="#FFFFFF" stroke="#000000" stroke-miterlimit="10" width="56" height="19.1"/>
	<rect x="45" y="132" fill="#FFFFFF" stroke="#000000" stroke-miterlimit="10" width="56.4" height="19.9"/>
	<rect x="45" y="121.8" fill="#FFFFFF" stroke="#000000" stroke-miterlimit="10" width="56.4" height="9.3"/>
	<polygon fill="#FFFFFF" stroke="#000000" stroke-miterlimit="10" points="52.6,108.4 107.3,109 101.4,121.8 45,121.1 	"/>
	<rect x="111.6" y="179.2" fill="#FFFFFF" stroke="#000000" stroke-miterlimit="10" width="26.6" height="6.8"/>
	<polyline fill="#FFFFFF" stroke="#000000" stroke-miterlimit="10" points="170.5,95.9 175.3,87.8 147.3,87.8 147.3,97.5 	"/>
	<rect x="114.3" y="94.5" fill="#FFFFFF" stroke="#000000" stroke-miterlimit="10" width="22.6" height="3"/>
	<polyline fill="#FFFFFF" stroke="#000000" stroke-miterlimit="10" points="117.5,92.7 116.3,92.7 119,88.5 64.8,89.5 59.3,95.9 
		52.5,108.4 107.3,109 114.3,97.1 58.9,96.1 	"/>
	<path fill="#FFFFFF" stroke="#000000" stroke-miterlimit="10" d="M112.5,96"/>
	<polyline fill="#FFFFFF" stroke="#000000" stroke-miterlimit="10" points="129,88.7 129,93.8 115.2,93.8 119,88.3 129,88.3 	"/>
	<polyline fill="#FFFFFF" stroke="#000000" stroke-miterlimit="10" points="175.3,87.8 197.8,87.8 197.8,96 171.5,96.6 	"/>
	<polygon fill="#FFFFFF" stroke="#000000" stroke-miterlimit="10" points="193,107.8 197.8,97 171.5,97.5 167,108.3 	"/>
	<polygon fill="#FFFFFF" stroke="#000000" stroke-miterlimit="10" points="196.9,100.6 225.4,100.6 222.3,107.4 193.8,108.3 	"/>
	<polyline fill="#FFFFFF" stroke="#000000" stroke-miterlimit="10" points="193.8,116.5 221.2,116.5 221.2,108.3 194,108.3 
		194,136.6 221.6,136.6 221.2,116.5 	"/>
</g>
<g id="Layer_5">
	<polyline fill="#FFFFFF" stroke="#000000" stroke-miterlimit="10" points="281.2,108.3 285.8,96 300,96 299.3,108.3 	"/>
	<polygon fill="#FFFFFF" stroke="#000000" stroke-miterlimit="10" points="511,167.9 511,178 541,179.5 541,167.9 	"/>
	<polyline fill="#FFFFFF" stroke="#000000" stroke-miterlimit="10" points="511,199.7 541,199.7 540.6,179.5 511,178.2 511.8,218 
		541,218 541,200.1 	"/>
	<polygon fill="#FFFFFF" stroke="#000000" stroke-miterlimit="10" points="512.2,220.7 539,256.5 539,220.7 	"/>
	<path fill="#FFFFFF" stroke="#000000" stroke-miterlimit="10" d="M512.2,220.7"/>
	<polygon fill="#FFFFFF" stroke="#000000" stroke-miterlimit="10" points="547.5,221.7 547.5,239.8 550.8,239.8 564.8,220.7 	"/>
	<g>
		<rect x="548.5" y="199" fill="#FFFFFF" stroke="#000000" stroke-miterlimit="10" width="16.3" height="19"/>
	</g>
</g>
</svg>
